<svg version="1.1" xmlns="http://www.w3.org/2000/svg" xmlns:xlink="http://www.w3.org/1999/xlink" width="86.74474" height="86.74474" viewBox="0,0,86.74474,86.74474"><g transform="translate(-196.62763,-136.62763)"><g data-paper-data="{&quot;isPaintingLayer&quot;:true}" fill-rule="nonzero" stroke-linecap="butt" stroke-linejoin="miter" stroke-miterlimit="10" stroke-dasharray="" stroke-dashoffset="0" style="mix-blend-mode: normal"><path d="M197.37763,180c0,-23.53969 19.08269,-42.62237 42.62237,-42.62237c23.53969,0 42.62237,19.08269 42.62237,42.62237c0,23.53969 -19.08269,42.62237 -42.62237,42.62237c-23.53969,0 -42.62237,-19.08269 -42.62237,-42.62237z" fill="#ffffff" stroke="#000000" stroke-width="1.5"/><path d="M225.07567,157.48301c0,-1.38071 1.11929,-2.5 2.5,-2.5c1.38071,0 2.5,1.11929 2.5,2.5c0,1.38071 -1.11929,2.5 -2.5,2.5c-1.38071,0 -2.5,-1.11929 -2.5,-2.5z" fill="#000000" stroke="none" stroke-width="0.5"/><path d="M260.49254,176.53484c0,-1.38071 1.11929,-2.5 2.5,-2.5c1.38071,0 2.5,1.11929 2.5,2.5c0,1.38071 -1.11929,2.5 -2.5,2.5c-1.38071,0 -2.5,-1.11929 -2.5,-2.5z" fill="#000000" stroke="none" stroke-width="0.5"/><path d="M249.60072,176.74727c0.27608,2.48471 -2.20863,2.76079 -2.20863,2.76079l-2.26675,0.25091c-6.43905,0.45346 -11.17752,-1.80539 -13.54854,-7.98762c0,0 -0.85436,-2.34948 1.49513,-3.20384c2.34948,-0.85436 3.20384,1.49513 3.20384,1.49513c1.34029,4.00191 4.38084,5.12359 8.43435,4.7136l2.12982,-0.2376c0,0 2.48471,-0.27608 2.76079,2.20863z" fill="#000000" stroke="none" stroke-width="0.5"/></g></g></svg>