<svg version="1.1" xmlns="http://www.w3.org/2000/svg" xmlns:xlink="http://www.w3.org/1999/xlink" width="32" height="32" viewBox="0,0,32,32"><g transform="translate(-224,-164)"><g data-paper-data="{&quot;isPaintingLayer&quot;:true}" fill-rule="nonzero" stroke-linecap="butt" stroke-linejoin="miter" stroke-miterlimit="10" stroke-dasharray="" stroke-dashoffset="0" style="mix-blend-mode: normal"><path d="M225,180c0,-8.28427 6.71573,-15 15,-15c8.28427,0 15,6.71573 15,15c0,8.28427 -6.71573,15 -15,15c-8.28427,0 -15,-6.71573 -15,-15z" fill="#ffffff" stroke="#000000" stroke-width="2"/><path d="M228.5,178.66667c0,-1.38071 1.11929,-2.5 2.5,-2.5c1.38071,0 2.5,1.11929 2.5,2.5c0,1.38071 -1.11929,2.5 -2.5,2.5c-1.38071,0 -2.5,-1.11929 -2.5,-2.5z" fill="#000000" stroke="none" stroke-width="0.5"/><path d="M242.83334,172.66667c0,-1.38071 1.11929,-2.5 2.5,-2.5c1.38071,0 2.5,1.11929 2.5,2.5c0,1.38071 -1.11929,2.5 -2.5,2.5c-1.38071,0 -2.5,-1.11929 -2.5,-2.5z" fill="#000000" stroke="none" stroke-width="0.5"/><path d="M248.90702,178.49606c2.17061,1.24034 0.93026,3.41096 0.93026,3.41096l-1.24096,2.15547c-0.42661,1.04213 -0.54796,2.27061 -1.27984,3.1264c-3.66426,4.28456 -9.33919,2.97372 -13.55682,0.64839c0,0 -2.17061,-1.24034 -0.93027,-3.41096c1.24034,-2.17061 3.41096,-0.93026 3.41096,-0.93026c3.33626,2.00547 6.50256,2.50945 7.83,-1.55855l1.42571,-2.51119c0,0 1.24034,-2.1706 3.41096,-0.93026z" fill="#000000" stroke="none" stroke-width="0.5"/></g></g></svg>