<svg version="1.1" xmlns="http://www.w3.org/2000/svg" xmlns:xlink="http://www.w3.org/1999/xlink" width="26.03195" height="42.00391" viewBox="0,0,26.03195,42.00391"><g transform="translate(-228.99707,-160)"><g data-paper-data="{&quot;isPaintingLayer&quot;:true}" fill-rule="nonzero" stroke="none" stroke-linecap="butt" stroke-linejoin="miter" stroke-miterlimit="10" stroke-dasharray="" stroke-dashoffset="0" style="mix-blend-mode: normal"><path d="M229.875,160c0.03125,0 0.0625,0 0.09375,0c0.01172,0 0.01953,0 0.03125,0c0.01953,0 0.04297,0 0.0625,0c0.01172,0 0.01953,0 0.03125,0c0.01953,0 0.04297,0 0.0625,0c0.01172,0 0.01953,0 0.03125,0c0.01953,0.00781 0.04297,0.01953 0.0625,0.03125c0.01172,0 0.01953,0 0.03125,0c0.05469,0.01563 0.10547,0.03906 0.15625,0.0625c0.01172,0 0.01953,0 0.03125,0c0.02344,0.01953 0.04297,0.03906 0.0625,0.0625c0.01172,0 0.01953,0 0.03125,0c0.04688,0.03906 0.08594,0.07813 0.125,0.125c0.05859,0.04688 0.10938,0.09766 0.15625,0.15625l23.84375,22.21875c0.30469,0.26563 0.41797,0.69141 0.28906,1.07422c-0.13281,0.38281 -0.48047,0.64844 -0.88281,0.67578l-10.1875,0.875l6.09375,13.3125c0.21875,0.5 -0.00391,1.08594 -0.5,1.3125l-4.375,2c-0.24219,0.11719 -0.52344,0.12891 -0.77734,0.03516c-0.25391,-0.09375 -0.45703,-0.28906 -0.56641,-0.53516l-5.84375,-13.5l-7.25,6.8125c-0.28906,0.27344 -0.71484,0.35156 -1.07812,0.19531c-0.36719,-0.15625 -0.60547,-0.51562 -0.60937,-0.91406v-32.84375c-0.00391,-0.05078 -0.00391,-0.10547 0,-0.15625c0,-0.01172 0,-0.01953 0,-0.03125c0,-0.01172 0,-0.01953 0,-0.03125c0,-0.03125 0,-0.0625 0,-0.09375c0.00781,-0.04297 0.01953,-0.08594 0.03125,-0.125c0,-0.01953 0,-0.04297 0,-0.0625c0.01172,-0.01172 0.01953,-0.01953 0.03125,-0.03125c0.00781,-0.01953 0.01953,-0.04297 0.03125,-0.0625c0,-0.01172 0,-0.01953 0,-0.03125c0.01172,-0.01172 0.01953,-0.01953 0.03125,-0.03125c0.02734,-0.04297 0.05859,-0.08594 0.09375,-0.125c0.00781,-0.01953 0.01953,-0.04297 0.03125,-0.0625c0.01953,-0.02344 0.03906,-0.04297 0.0625,-0.0625c0.03125,-0.02344 0.0625,-0.04297 0.09375,-0.0625c0.01172,-0.01172 0.01953,-0.01953 0.03125,-0.03125c0.01172,-0.01172 0.01953,-0.01953 0.03125,-0.03125c0.01953,-0.01172 0.04297,-0.02344 0.0625,-0.03125c0.01172,0 0.01953,0 0.03125,0c0.03906,-0.02344 0.08203,-0.04297 0.125,-0.0625c0.03125,-0.01172 0.0625,-0.02344 0.09375,-0.03125c0.03125,0 0.0625,0 0.09375,0zM231,191.6875l6.625,-6.21875c0.23828,-0.21875 0.57031,-0.30859 0.88672,-0.23828c0.31641,0.06641 0.57813,0.28516 0.70703,0.58203l6,13.84375l2.5625,-1.15625l-6.28125,-13.6875c-0.13281,-0.29297 -0.11719,-0.63281 0.04688,-0.91016c0.16016,-0.28125 0.44531,-0.46484 0.76563,-0.49609l9.375,-0.8125l-20.6875,-19.3125z" fill="#000000" stroke-width="1"/><path d="M230.97528,163.23779l20.76193,19.36137l-9.40235,0.85182c-0.32031,0.03125 -0.62367,0.21995 -0.78383,0.5012c-0.16406,0.27734 -0.18618,0.51741 -0.05337,0.81038l6.30126,13.78422l-2.56976,1.15838l-6.03239,-13.84774c-0.12891,-0.29687 -0.39873,-0.52059 -0.71513,-0.587c-0.31641,-0.07031 -0.65241,0.01621 -0.89069,0.23496l-6.62653,6.21727z" data-paper-data="{&quot;noHover&quot;:false,&quot;origItem&quot;:[&quot;Path&quot;,{&quot;applyMatrix&quot;:true,&quot;segments&quot;:[[231,191.6875],[[237.625,185.46875],[0,0],[0.23828,-0.21875]],[[238.51172,185.23047],[-0.31641,-0.07031],[0.31641,0.06641]],[[239.21875,185.8125],[-0.12891,-0.29687],[0,0]],[245.21875,199.65625],[247.78125,198.5],[[241.5,184.8125],[0,0],[-0.13281,-0.29297]],[[241.54688,183.90234],[-0.16406,0.27734],[0.16016,-0.28125]],[[242.3125,183.40625],[-0.32031,0.03125],[0,0]],[251.6875,182.59375],[231,163.28125]],&quot;closed&quot;:true,&quot;fillColor&quot;:[0,0,0,1]}]}" fill="#ffffff" stroke-width="0.5"/><path d="M232.1178,173.1183c0,-0.69036 0.55964,-1.25 1.25,-1.25c0.69036,0 1.25,0.55964 1.25,1.25c0,0.69036 -0.55964,1.25 -1.25,1.25c-0.69036,0 -1.25,-0.55964 -1.25,-1.25z" fill="#000000" stroke-width="0.5"/><path d="M238.71549,174.98765c0,-0.69036 0.55964,-1.25 1.25,-1.25c0.69036,0 1.25,0.55964 1.25,1.25c0,0.69036 -0.55964,1.25 -1.25,1.25c-0.69036,0 -1.25,-0.55964 -1.25,-1.25z" fill="#000000" stroke-width="0.5"/><path d="M241.21549,177.95661c0,1.25 -1.25,1.25 -1.25,1.25l0.14768,-0.05528c-2.86693,0.8818 -4.5537,0.77179 -7.16857,-0.78263c0,0 -1.07187,-0.64312 -0.42875,-1.71499c0.64312,-1.07187 1.71499,-0.42875 1.71499,-0.42875c2.05433,1.24642 2.91816,1.22301 5.14712,0.53691l0.58753,-0.05528c0,0 1.25,0 1.25,1.25z" fill="#000000" stroke-width="0.5"/></g></g></svg>